<?xml version="1.0" encoding="iso-8859-1"?>
<!-- Generator: Adobe Illustrator 19.0.0, SVG Export Plug-In . SVG Version: 6.00 Build 0)  -->
<svg version="1.1" id="Layer_1" xmlns="http://www.w3.org/2000/svg" xmlns:xlink="http://www.w3.org/1999/xlink" x="0px" y="0px"
	 viewBox="0 0 511.999 511.999" style="enable-background:new 0 0 511.999 511.999;" xml:space="preserve">
<g>
	<g>
		<path d="M474.297,247.843c-4.507-2.609-10.28-1.069-12.892,3.442c-20.481,35.403-49.935,65.096-85.176,85.868
			c-36.289,21.388-77.863,32.695-120.23,32.695c-127.594,0-231.974-101.298-236.944-227.696h29.77
			c0.872,19.472,4.437,38.594,10.644,56.972c1.33,3.935,5.002,6.418,8.937,6.418c1.001,0,2.019-0.16,3.02-0.498
			c4.936-1.668,7.587-7.022,5.919-11.958c-5.55-16.429-8.772-33.521-9.628-50.933h272.57c5.212,0,9.435-4.224,9.435-9.435
			s-4.223-9.435-9.435-9.435H9.435c-5.212,0-9.435,4.224-9.435,9.435c0,141.159,114.841,256,256,256
			c45.735,0,90.623-12.21,129.811-35.307c38.033-22.418,69.822-54.464,91.928-92.673
			C480.35,256.224,478.807,250.452,474.297,247.843z"/>
	</g>
</g>
<g>
	<g>
		<path d="M502.565,123.281H371.737c-5.212,0-9.435,4.224-9.435,9.435c0,5.211,4.223,9.435,9.435,9.435h72.551
			C439.355,241.737,356.788,321.239,256,321.239c-35.515,0-70.108-9.925-100.039-28.701c-29.132-18.276-52.731-44.123-68.246-74.75
			c-2.354-4.648-8.028-6.509-12.68-4.153c-4.647,2.355-6.507,8.032-4.153,12.68c17.063,33.683,43.015,62.111,75.052,82.208
			c32.94,20.663,70.998,31.585,110.066,31.585c111.194,0,202.218-87.965,207.168-197.959h29.78
			c-1.12,28.88-7.388,56.892-18.676,83.398c-2.042,4.794,0.19,10.335,4.984,12.377c1.206,0.513,2.459,0.757,3.692,0.757
			c3.668,0,7.157-2.152,8.685-5.74c13.513-31.733,20.365-65.455,20.365-100.226C512,127.505,507.776,123.281,502.565,123.281z"/>
	</g>
</g>
<g>
	<g>
		<path d="M135.239,168.907c-5.212,0-9.435,4.223-9.435,9.435v18.87c0,5.211,4.223,9.435,9.435,9.435
			c5.212,0,9.435-4.224,9.435-9.435v-18.87C144.674,173.131,140.451,168.907,135.239,168.907z"/>
	</g>
</g>
<g>
	<g>
		<path d="M299.614,168.907c-5.212,0-9.435,4.223-9.435,9.435v18.87c0,5.211,4.223,9.435,9.435,9.435s9.435-4.224,9.435-9.435
			v-18.87C309.048,173.131,304.826,168.907,299.614,168.907z"/>
	</g>
</g>
<g>
	<g>
		<path d="M217.426,168.907c-5.212,0-9.435,4.223-9.435,9.435v18.87c0,5.211,4.223,9.435,9.435,9.435
			c5.212,0,9.435-4.224,9.435-9.435v-18.87C226.86,173.131,222.637,168.907,217.426,168.907z"/>
	</g>
</g>
<g>
	<g>
		<path d="M381.8,168.907c-5.212,0-9.435,4.224-9.435,9.435v18.87c0,5.211,4.223,9.435,9.435,9.435c5.212,0,9.435-4.224,9.435-9.435
			v-18.87C391.235,173.131,387.012,168.907,381.8,168.907z"/>
	</g>
</g>
<g>
	<g>
		<path d="M256,240.274c-5.212,0-9.435,4.224-9.435,9.435v18.87c0,5.211,4.223,9.435,9.435,9.435c5.212,0,9.435-4.224,9.435-9.435
			v-18.87C265.435,244.498,261.212,240.274,256,240.274z"/>
	</g>
</g>
<g>
	<g>
		<path d="M173.812,240.274c-5.212,0-9.435,4.224-9.435,9.435v18.87c0,5.211,4.223,9.435,9.435,9.435
			c5.212,0,9.435-4.224,9.435-9.435v-18.87C183.247,244.498,179.024,240.274,173.812,240.274z"/>
	</g>
</g>
<g>
	<g>
		<path d="M338.187,240.274c-5.212,0-9.435,4.224-9.435,9.435v18.87c0,5.211,4.223,9.435,9.435,9.435
			c5.212,0,9.435-4.224,9.435-9.435v-18.87C347.621,244.498,343.398,240.274,338.187,240.274z"/>
	</g>
</g>
<g>
</g>
<g>
</g>
<g>
</g>
<g>
</g>
<g>
</g>
<g>
</g>
<g>
</g>
<g>
</g>
<g>
</g>
<g>
</g>
<g>
</g>
<g>
</g>
<g>
</g>
<g>
</g>
<g>
</g>
</svg>
